# xmcd
#
# Track frame offsets:
#	150
#	16090
#	34271
#	48107
#	60688
#	76300
#	96394
#	113392
#	129516
#	141988
#	155942
#	170550
#	181395
#	196208
#	211433
#	228246
#	244125
#	259316
#	276692
#	294291
#	312632
#	329784
#
# Disc length: 4634 seconds
#
# Revision: 2
# Processed by: cddbd v1.5.2PL0 Copyright (c) Steve Scherf et al.
# Submitted via: EasyCDDAExtractor 11.5.0.1
#
DISCID=4f121816
DTITLE=Various Artist - NCT 075
DYEAR=2005
DGENRE=Country 
TTITLE0=Jo Dee Messina - Delicious Surprise (I Believe It)
TTITLE1=Trace Adkins - Arlington
TTITLE2=Phil Vassar - Good Ole Days
TTITLE3=Aaron Tippin - Come Friday
TTITLE4=Billy Dean - Race You To The Bottom
TTITLE5=Cowboy Troy - If You Don't Wanna Love Me
TTITLE6=Randy Travis - Angels
TTITLE7=Keni Thomas With Blackhawk - Gloryland
TTITLE8=Matt Jenkins - King Of The Castle
TTITLE9=Jeff Bates - Good People
TTITLE10=Tracy Lawrence - Used To The Pain
TTITLE11=Clint Black - Rainbow In The Rain
TTITLE12=Jessica Andrews - Summer Girl
TTITLE13=Aaron Lines - It Takes A Man
TTITLE14=Keith Anderson - XXL
TTITLE15=Lisa Brokop - Big Picture
TTITLE16=Charlie Robison - Photograph
TTITLE17=Shawn King - In My Own Back Yard
TTITLE18=Alison Krauss and Union Station - Goodbye Is All We Have
TTITLE19=Little Big Town - Boondocks
TTITLE20=Susan Haynes - Crooked Little Heart
TTITLE21=Lila McCann - I Can Do This
EXTD=
EXTT0=
EXTT1=
EXTT2=
EXTT3=
EXTT4=
EXTT5=
EXTT6=
EXTT7=
EXTT8=
EXTT9=
EXTT10=
EXTT11=
EXTT12=
EXTT13=
EXTT14=
EXTT15=
EXTT16=
EXTT17=
EXTT18=
EXTT19=
EXTT20=
EXTT21=
PLAYORDER=
